<svg width="15" height="15" viewBox="0 0 15 15" fill="none" xmlns="http://www.w3.org/2000/svg">
<path d="M1.52047 3.0225C2.35776 3.01979 3.02462 2.3475 3.02159 1.5083C3.01824 0.669096 2.35026 0.000639026 1.51265 7.27759e-07C0.668026 -0.000797145 -0.00649555 0.679628 4.70045e-05 1.52649C0.00627041 2.3625 0.680632 3.02601 1.52047 3.0225Z" transform="translate(5.98767 2.97595)" fill="#BABDBE"/>
<path d="M14.2021 0H0.797872C0.357287 0 0 0.357128 0 0.797872V14.2021C0 14.6429 0.357287 15 0.797872 15H14.2021C14.6429 15 15 14.6429 15 14.2021V0.797872C15 0.357128 14.6429 0 14.2021 0ZM7.51277 1.39883C9.22005 1.40314 10.5908 2.80005 10.5823 4.52681C10.5732 6.21351 9.18016 7.58074 7.47558 7.575C5.78793 7.56926 4.4041 6.17027 4.41367 4.47989C4.42372 2.77101 5.80851 1.39372 7.51277 1.39883ZM10.9712 8.78808C10.5937 9.17601 10.1392 9.45622 9.63431 9.65234C9.15702 9.83681 8.6341 9.93032 8.11644 9.99223C8.19463 10.0774 8.23149 10.1188 8.28 10.1681C8.98277 10.8742 9.6884 11.5774 10.3888 12.2856C10.6272 12.5268 10.6776 12.826 10.546 13.1066C10.4022 13.4138 10.0806 13.6154 9.765 13.5937C9.56521 13.5796 9.40947 13.4802 9.27128 13.3412C8.74085 12.8074 8.20037 12.2837 7.68112 11.7405C7.53 11.5822 7.45723 11.6118 7.32351 11.7495C6.79005 12.2987 6.2483 12.8395 5.70303 13.3771C5.45809 13.6187 5.16686 13.662 4.88234 13.5243C4.58043 13.3779 4.38862 13.0698 4.40346 12.7597C4.41367 12.5504 4.51676 12.3905 4.66053 12.2469C5.35564 11.5526 6.04915 10.8565 6.74298 10.1609C6.7891 10.1149 6.83186 10.0656 6.89872 9.99415C5.95261 9.89537 5.09952 9.66271 4.36947 9.09144C4.27899 9.02043 4.18532 8.95181 4.10234 8.87234C3.78287 8.56532 3.7508 8.2141 4.00372 7.8517C4.21979 7.54181 4.5833 7.45851 4.96069 7.63644C5.03394 7.67074 5.10351 7.71399 5.17021 7.76011C6.53106 8.69521 8.4008 8.72122 9.76692 7.80255C9.90207 7.69931 10.0468 7.61378 10.2147 7.57133C10.541 7.48755 10.8445 7.60707 11.0197 7.89239C11.2203 8.21745 11.2176 8.53532 10.9712 8.78808Z" fill="#BABDBE"/>
</svg>
