<svg width="15" height="15" viewBox="0 0 15 15" fill="none" xmlns="http://www.w3.org/2000/svg">
<path d="M14.2021 0H0.797872C0.357128 0 0 0.357287 0 0.797872V14.2021C0 14.6427 0.357128 15 0.797872 15H14.2021C14.6429 15 15 14.6427 15 14.2021V0.797872C15 0.357287 14.6429 0 14.2021 0ZM11.9472 8.44835C12.356 8.84729 12.7883 9.22293 13.1555 9.66383C13.3179 9.85851 13.4711 10.0596 13.5878 10.286C13.7539 10.609 13.6039 10.9637 13.3144 10.9827L11.5182 10.9822C11.0545 11.0204 10.6853 10.8337 10.3738 10.5166C10.1256 10.2637 9.89489 9.99367 9.65569 9.73245C9.55819 9.62505 9.45479 9.52404 9.33255 9.44425C9.08777 9.28532 8.87505 9.33383 8.73447 9.58931C8.59149 9.84941 8.55846 10.1379 8.54537 10.4279C8.52542 10.8515 8.39777 10.9621 7.97282 10.9818C7.06484 11.0245 6.20298 10.8866 5.40239 10.4291C4.69564 10.0254 4.1491 9.45511 3.67293 8.81011C2.74484 7.55218 2.0341 6.17138 1.3958 4.75101C1.25202 4.43106 1.35718 4.25984 1.70968 4.2533C2.29628 4.24165 2.88271 4.24324 3.46851 4.25266C3.70723 4.25633 3.86505 4.39293 3.95649 4.61793C4.27324 5.39745 4.66197 6.13915 5.14867 6.82692C5.2784 7.00995 5.41085 7.19266 5.59915 7.32207C5.80723 7.46505 5.96585 7.41798 6.06399 7.1858C6.1267 7.03771 6.15383 6.88037 6.16723 6.72207C6.21383 6.18016 6.21942 5.63824 6.13899 5.0984C6.08872 4.76075 5.89851 4.54261 5.56181 4.47878C5.39043 4.44622 5.41548 4.38271 5.49878 4.28489C5.64335 4.11543 5.77963 4.01074 6.05027 4.01074L8.08021 4.01043C8.40032 4.07298 8.47149 4.2166 8.51505 4.53878L8.51697 6.79404C8.51362 6.91883 8.57936 7.2884 8.8034 7.37011C8.98261 7.42931 9.10149 7.28553 9.20872 7.1716C9.69511 6.65537 10.0417 6.04564 10.3524 5.41484C10.4891 5.1367 10.6077 4.84851 10.7226 4.56016C10.8077 4.34681 10.9407 4.24181 11.1814 4.24564L13.1355 4.24771C13.193 4.24771 13.2519 4.24835 13.3088 4.25777C13.6379 4.31441 13.728 4.45612 13.6264 4.7775C13.4662 5.28223 13.1542 5.70287 12.8491 6.12447C12.5231 6.57527 12.1751 7.01122 11.8514 7.46426C11.5549 7.87979 11.5789 8.08851 11.9472 8.44835Z" fill="#BABDBE"/>
</svg>
