<svg width="15" height="15" viewBox="0 0 15 15" fill="none" xmlns="http://www.w3.org/2000/svg">
<path d="M14.2021 0H0.797872C0.357287 0 0 0.357287 0 0.797872V14.2021C0 14.6427 0.357287 15 0.797872 15H14.2021C14.6429 15 15 14.6427 15 14.2021V0.797872C15 0.357287 14.6429 0 14.2021 0ZM10.6803 3.40915L9.52723 3.40963C8.6234 3.40963 8.44835 3.8392 8.44835 4.46968V5.85973H10.6044L10.6037 8.03697H8.44835V13.624H6.19979V8.03697H4.31968V5.85973H6.19979V4.2541C6.19979 2.39074 7.33803 1.37601 9 1.37601L10.6803 1.37872V3.40915Z" fill="#BABDBE"/>
</svg>
