<svg width="16" height="11" viewBox="0 0 16 11" fill="none" xmlns="http://www.w3.org/2000/svg">
<path d="M16 0.549995V1.64999H0V0.549995C0.000875 0.246602 0.247375 0.000872206 0.551719 -6.08445e-08H15.4483C15.7526 0.000903358 15.9991 0.246633 16 0.549995Z" fill="#C03A2B"/>
<path d="M16 -4.56334e-08V1.09999C15.9991 1.40338 15.7526 1.64911 15.4483 1.64999H0.551719C0.247375 1.64911 0.00090625 1.40338 0 1.10002V3.13273e-05H16V-4.56334e-08Z" transform="translate(0 9.35001)" fill="#C03A2B"/>
<path d="M16 0H0V7.7H16V0Z" transform="translate(0 1.65002)" fill="#E6E7E8"/>
<path d="M16 0H0V3.85H16V0Z" transform="translate(0 3.57502)" fill="#285680"/>
</svg>
