<svg width="15" height="15" viewBox="0 0 15 15" fill="none" xmlns="http://www.w3.org/2000/svg">
<path d="M0.595234 2.61566H2.08987C2.41719 2.61566 2.68494 2.34774 2.68494 2.02026V0.595404C2.68494 0.267745 2.41719 1.81807e-08 2.08987 1.81807e-08H0.595234C0.267745 1.81807e-08 -9.35007e-08 0.267745 -9.35007e-08 0.595404V2.02026C-9.35007e-08 2.34774 0.267745 2.61566 0.595234 2.61566Z" transform="translate(10.4257 2.85754)" fill="#BABDBE"/>
<path d="M2.65566 5.14621C4.12234 5.14621 5.31132 3.99419 5.31132 2.57311C5.31132 1.15202 4.12234 0 2.65566 0C1.18898 0 0 1.15202 0 2.57311C0 3.99419 1.18898 5.14621 2.65566 5.14621Z" transform="translate(5.35693 5.39813)" fill="#BABDBE"/>
<path d="M14.2021 0H0.797872C0.357287 0 0 0.357287 0 0.797872V14.2021C0 14.6427 0.357287 15 0.797872 15H14.2021C14.6429 15 15 14.6427 15 14.2021V0.797872C15 0.357287 14.6429 0 14.2021 0ZM13.6984 12.1072C13.6984 13.0505 12.9823 13.6984 12.1072 13.6984H2.89277C2.01766 13.6984 1.30165 13.0505 1.30165 12.1072V2.89277C1.30165 1.94952 2.0175 1.30165 2.89277 1.30165H12.1072C12.9822 1.30165 13.6984 1.94952 13.6984 2.89277V12.1072Z" fill="#BABDBE"/>
<path d="M9.26502 1.13464C9.26502 3.33413 7.42468 5.11694 5.15506 5.11694C2.88511 5.11694 1.04494 3.33396 1.04494 1.13464C1.04494 0.740425 1.10451 0.359659 1.21464 -2.85696e-07H-7.532e-08V5.58553C-7.532e-08 5.87455 0.236766 6.11115 0.525787 6.11115H9.73413C10.023 6.11115 10.2597 5.87455 10.2597 5.58553V-2.85696e-07H9.09583C9.20545 0.359659 9.26502 0.740255 9.26502 1.13464Z" transform="translate(2.85773 6.98041)" fill="#BABDBE"/>
</svg>
