<svg width="16" height="11" viewBox="0 0 16 11" fill="none" xmlns="http://www.w3.org/2000/svg">
<path d="M12.4138 11H15.4483C15.753 11 16 10.7537 16 10.45V0.549994C16 0.246228 15.753 -6.08443e-08 15.4483 -6.08443e-08H0.55172C0.247001 -6.08443e-08 0 0.246259 0 0.549994V10.45C0 10.7537 0.247001 11 0.55172 11H12.4138V11Z" fill="#C03A2B"/>
<path d="M3.19063 9.8872e-08L4.17657 1.99154L6.38126 2.31081L4.78595 3.86098L5.16251 6.04996L3.19063 5.01652L1.21875 6.04996L1.59532 3.86098L-1.90735e-07 2.31081L2.20469 1.99154L3.19063 9.8872e-08Z" transform="translate(5 1.98611)" fill="#F3D55B"/>
</svg>
