<svg width="90" height="31" viewBox="0 0 90 31" fill="none" xmlns="http://www.w3.org/2000/svg">
<path d="M5.61078 20.2939C5.0168 20.2939 4.59137 20.1671 4.33451 19.9133C4.07765 19.6436 3.94922 19.144 3.94922 18.4144C3.94922 17.9227 3.99738 17.2962 4.09371 16.5349C4.20608 15.7577 4.38267 14.6951 4.62348 13.3469C5.04088 10.8567 5.36998 8.69967 5.61078 6.87567C5.75527 5.73369 5.82751 4.78204 5.82751 4.02072C5.82751 3.30698 5.56262 2.95012 5.03285 2.95012C4.61545 2.95012 4.10976 3.16424 3.51577 3.59248C2.93784 4.00486 2.29569 4.67102 1.58932 5.59094C1.36457 5.8923 1.11574 6.04298 0.842822 6.04298C0.618069 6.04298 0.417397 5.93988 0.240806 5.73369C0.0802687 5.51164 0 5.2658 0 4.99616C0 4.74239 0.0481612 4.48862 0.144484 4.23484C0.25686 3.96521 0.433451 3.66385 0.674257 3.33077C1.44484 2.2681 2.30371 1.45127 3.25088 0.880276C4.19805 0.293425 5.14523 0 6.0924 0C6.97535 0 7.64961 0.277564 8.11517 0.832693C8.59678 1.38782 8.83759 2.19673 8.83759 3.2594C8.83759 3.68764 8.79745 4.19519 8.71718 4.78204C8.63692 5.35303 8.56467 5.82093 8.50046 6.18573C8.43624 6.55052 8.38808 6.8043 8.35598 6.94705C9.27104 4.36173 10.2985 2.56152 11.4383 1.54643C12.5781 0.515477 13.8303 0 15.1949 0C16.2384 0 17.0571 0.364799 17.6511 1.0944C18.2611 1.824 18.5662 2.85495 18.5662 4.18726C18.5662 4.71067 18.4939 5.36096 18.3494 6.13814C19.1521 3.94935 20.0913 2.37913 21.1669 1.42748C22.2425 0.475825 23.4786 0 24.8753 0C25.999 0 26.8579 0.356869 27.4519 1.07061C28.062 1.78434 28.367 2.78358 28.367 4.0683C28.367 4.76618 28.2626 5.61473 28.0539 6.61397L26.585 13.4183C26.4245 14.2113 26.3442 14.8933 26.3442 15.4643C26.3442 16.1305 26.4967 16.6301 26.8017 16.9632C27.1228 17.2962 27.5643 17.4628 28.1262 17.4628C28.6559 17.4628 29.1697 17.2883 29.6673 16.9394C30.181 16.5904 30.7831 16.0115 31.4734 15.2026C31.666 14.9806 31.8827 14.8695 32.1235 14.8695C32.3322 14.8695 32.4928 14.9647 32.6052 15.155C32.7336 15.3454 32.7978 15.6071 32.7978 15.9401C32.7978 16.5587 32.6453 17.0504 32.3403 17.4152C31.5055 18.4144 30.6787 19.144 29.86 19.604C29.0412 20.064 28.1824 20.2939 27.2833 20.2939C25.9188 20.2939 24.8512 19.8974 24.0806 19.1044C23.31 18.2955 22.9248 17.2169 22.9248 15.8688C22.9248 14.933 23.1174 13.5769 23.5027 11.8005L24.4659 7.44666C24.498 7.30391 24.5542 7.05014 24.6345 6.68534C24.7147 6.32054 24.779 5.97953 24.8271 5.66232C24.8753 5.32924 24.8994 5.00409 24.8994 4.68688C24.8994 4.13175 24.787 3.71937 24.5622 3.44973C24.3535 3.16424 24.0485 3.02149 23.6472 3.02149C22.8926 3.02149 22.098 3.50524 21.2632 4.47275C20.4444 5.4244 19.6578 7.01049 18.9033 9.231C18.1648 11.4515 17.5628 14.3382 17.0972 17.891C16.9849 18.8427 16.7842 19.485 16.4952 19.8181C16.2223 20.1353 15.7728 20.2939 15.1467 20.2939C14.6009 20.2939 14.1995 20.1671 13.9427 19.9133C13.7019 19.6595 13.5815 19.1837 13.5815 18.4858C13.5815 17.8355 13.6698 16.987 13.8464 15.9401C14.0229 14.8775 14.2477 13.6324 14.5206 12.2049C15.2591 8.36659 15.6283 5.8923 15.6283 4.78204C15.6283 4.17933 15.5079 3.73523 15.2671 3.44973C15.0424 3.16424 14.6972 3.02149 14.2316 3.02149C13.445 3.02149 12.6343 3.46559 11.7995 4.3538C10.9647 5.22614 10.146 6.78844 9.34328 9.04068C8.55665 11.2771 7.89844 14.3065 7.36867 18.1289C7.25629 18.9378 7.08773 19.5009 6.86298 19.8181C6.65428 20.1353 6.23688 20.2939 5.61078 20.2939Z" fill="white"/>
<path d="M43.1867 14.9171C43.3954 14.9171 43.5559 15.0202 43.6683 15.2264C43.7968 15.4167 43.861 15.6626 43.861 15.9639C43.861 16.3287 43.8048 16.6142 43.6924 16.8204C43.58 17.0266 43.4034 17.209 43.1626 17.3676L38.5392 20.4367C37.9291 23.7199 37.1264 26.2973 36.1311 28.1688C35.1518 30.0563 33.8996 31 32.3745 31C31.5558 31 30.8895 30.7462 30.3758 30.2387C29.8621 29.747 29.6052 29.0967 29.6052 28.2878C29.6052 27.5423 29.7738 26.781 30.1109 26.0038C30.4641 25.2267 31.1063 24.3305 32.0374 23.3154C32.9846 22.3162 34.317 21.1663 36.0348 19.8657L36.107 19.3185C36.2194 18.7316 36.3478 17.891 36.4923 16.7966C36.1712 17.9386 35.7217 18.8109 35.1438 19.4137C34.5658 20.0005 33.9558 20.2939 33.3137 20.2939C32.5912 20.2939 31.9972 19.9688 31.5317 19.3185C31.0822 18.6523 30.8574 17.8276 30.8574 16.8442C30.8574 15.6546 30.9377 14.5682 31.0982 13.5848C31.2588 12.5856 31.5237 11.5308 31.8929 10.4206C32.0534 9.94474 32.2782 9.60373 32.5672 9.39754C32.8561 9.19135 33.3137 9.08826 33.9398 9.08826C34.2929 9.08826 34.5337 9.14377 34.6622 9.2548C34.8067 9.36582 34.8789 9.53236 34.8789 9.75441C34.8789 9.8813 34.7906 10.3095 34.614 11.0391C34.4535 11.626 34.325 12.1573 34.2287 12.6332C34.1003 13.2834 33.9879 13.91 33.8916 14.5127C33.7953 15.0995 33.7471 15.5833 33.7471 15.9639C33.7471 16.5666 33.9157 16.868 34.2528 16.868C34.4936 16.868 34.7906 16.6301 35.1438 16.1543C35.513 15.6784 35.8983 14.9568 36.2997 13.9893C36.7171 13.0217 37.1184 11.8322 37.5037 10.4206C37.6321 9.94474 37.8248 9.60373 38.0816 9.39754C38.3545 9.19135 38.7559 9.08826 39.2857 9.08826C39.6549 9.08826 39.9117 9.13584 40.0562 9.231C40.2007 9.32617 40.273 9.48478 40.273 9.70683C40.273 10.1034 40.0643 11.4674 39.6469 13.7989L39.0208 17.6293C40.2569 16.7094 41.4609 15.8688 42.6329 15.1074C42.8416 14.9806 43.0262 14.9171 43.1867 14.9171ZM32.6394 28.6922C33.0407 28.6922 33.4902 28.2323 33.9879 27.3124C34.4856 26.3924 34.9832 24.8619 35.4809 22.7206C34.2448 23.7516 33.3458 24.6874 32.7839 25.528C32.2381 26.3845 31.9651 27.13 31.9651 27.7644C31.9651 28.034 32.0133 28.2561 32.1096 28.4305C32.222 28.605 32.3986 28.6922 32.6394 28.6922Z" fill="white"/>
<path d="M61.4763 0.428243C61.974 0.523407 62.3432 0.689946 62.584 0.927858C62.8409 1.16577 62.9693 1.44334 62.9693 1.76055C62.9693 2.28396 62.8168 2.66462 62.5118 2.90253C62.2228 3.14044 61.7573 3.23561 61.1151 3.18803C59.6703 3.077 58.5385 3.00563 57.7197 2.97391C56.9171 2.92632 55.8575 2.8946 54.5411 2.87874C53.9471 5.79713 53.4013 8.73139 52.9036 11.6815C52.727 12.76 52.5424 14.013 52.3498 15.4405C52.1571 16.8521 52.0287 17.9941 51.9645 18.8665C51.9324 19.3264 51.7397 19.6833 51.3865 19.9371C51.0334 20.175 50.6079 20.2939 50.1103 20.2939C49.5805 20.2939 49.1711 20.1671 48.8822 19.9133C48.5932 19.6595 48.4487 19.3264 48.4487 18.914C48.4487 18.5334 48.5049 17.9069 48.6173 17.0345C48.7457 16.1463 48.8902 15.2185 49.0507 14.251C49.2273 13.2834 49.3638 12.4428 49.4601 11.7291C49.6367 10.5237 49.8374 9.32617 50.0621 8.13661C50.2869 6.94705 50.5116 5.82093 50.7364 4.75825C50.7845 4.52034 50.8407 4.2507 50.9049 3.94935C50.9691 3.63213 51.0414 3.28319 51.1217 2.90253C49.5484 2.95012 48.3122 3.077 47.4132 3.28319C46.5142 3.48938 45.8721 3.78281 45.4868 4.16347C45.1176 4.52827 44.9329 5.00409 44.9329 5.59094C44.9329 6.13021 45.0935 6.64569 45.4145 7.13738C45.4788 7.2484 45.5109 7.36736 45.5109 7.49424C45.5109 7.7956 45.3262 8.0811 44.957 8.35073C44.6038 8.6045 44.2346 8.73139 43.8493 8.73139C43.5764 8.73139 43.3516 8.65208 43.175 8.49348C42.854 8.22384 42.5891 7.84318 42.3804 7.3515C42.1717 6.84395 42.0673 6.27296 42.0673 5.63853C42.0673 4.29036 42.5088 3.21182 43.3918 2.40292C44.2908 1.57815 45.6473 0.975441 47.4614 0.594781C49.2915 0.214121 51.6354 0.0237909 54.4929 0.0237909C56.2589 0.0237909 57.6636 0.0555127 58.7071 0.118956C59.7666 0.1824 60.6897 0.285495 61.4763 0.428243Z" fill="white"/>
<path d="M69.2886 12.8711C69.4973 12.8711 69.6578 12.9742 69.7702 13.1804C69.8826 13.3865 69.9388 13.6482 69.9388 13.9655C69.9388 14.7268 69.706 15.1788 69.2404 15.3216C68.2772 15.6546 67.2177 15.845 66.0618 15.8926C65.7568 17.2249 65.1548 18.2955 64.2558 19.1044C63.3567 19.8974 62.3373 20.2939 61.1975 20.2939C60.2343 20.2939 59.4075 20.064 58.7172 19.604C58.043 19.144 57.5292 18.5334 57.176 17.7721C56.8229 17.0107 56.6463 16.186 56.6463 15.2978C56.6463 14.0924 56.8791 13.0217 57.3446 12.086C57.8102 11.1343 58.4523 10.3968 59.2711 9.87337C60.0898 9.3341 60.9968 9.06447 61.9922 9.06447C63.2123 9.06447 64.1915 9.48478 64.93 10.3254C65.6845 11.1502 66.126 12.1732 66.2544 13.3945C67.009 13.3469 67.908 13.1883 68.9515 12.9186C69.0799 12.8869 69.1923 12.8711 69.2886 12.8711ZM61.3902 17.7721C61.9039 17.7721 62.3454 17.5659 62.7146 17.1535C63.0999 16.7411 63.3567 16.1463 63.4852 15.3691C62.9875 15.0361 62.6022 14.5999 62.3293 14.0606C62.0724 13.5214 61.944 12.9504 61.944 12.3477C61.944 12.0939 61.9681 11.8401 62.0163 11.5863H61.8958C61.2537 11.5863 60.7159 11.8956 60.2824 12.5142C59.865 13.1169 59.6564 13.9734 59.6564 15.0837C59.6564 15.956 59.8249 16.6222 60.162 17.0821C60.5152 17.5421 60.9246 17.7721 61.3902 17.7721Z" fill="white"/>
<path d="M70.3282 20.2939C69.6058 20.2939 69.0118 19.9688 68.5462 19.3185C68.0967 18.6523 67.872 17.8276 67.872 16.8442C67.872 15.6546 67.9523 14.5682 68.1128 13.5848C68.2733 12.5856 68.5382 11.5308 68.9074 10.4206C69.068 9.94474 69.2927 9.60373 69.5817 9.39754C69.8707 9.19135 70.3282 9.08826 70.9543 9.08826C71.3075 9.08826 71.5483 9.14377 71.6767 9.2548C71.8212 9.36582 71.8934 9.53236 71.8934 9.75441C71.8934 9.8813 71.8051 10.3095 71.6286 11.0391C71.468 11.626 71.3396 12.1573 71.2433 12.6332C70.9222 14.2985 70.7617 15.4088 70.7617 15.9639C70.7617 16.297 70.8018 16.5349 70.8821 16.6777C70.9623 16.8046 71.0908 16.868 71.2673 16.868C71.5082 16.868 71.8051 16.6301 72.1583 16.1543C72.5276 15.6784 72.9129 14.9568 73.3142 13.9893C73.7316 13.0217 74.1329 11.8322 74.5182 10.4206C74.6467 9.94474 74.8393 9.60373 75.0962 9.39754C75.3691 9.19135 75.7704 9.08826 76.3002 9.08826C76.6694 9.08826 76.9263 9.13584 77.0708 9.231C77.2153 9.31031 77.2875 9.46892 77.2875 9.70683C77.2875 10.1034 77.0868 11.1898 76.6855 12.9662C76.236 14.9964 76.0112 16.2494 76.0112 16.7252C76.0112 17.0266 76.0755 17.2645 76.2039 17.439C76.3323 17.5976 76.5009 17.6769 76.7096 17.6769C77.0306 17.6769 77.4079 17.4866 77.8414 17.1059C78.2909 16.7094 78.8849 16.075 79.6233 15.2026C79.816 14.9806 80.0327 14.8695 80.2735 14.8695C80.4822 14.8695 80.6427 14.9647 80.7551 15.155C80.8835 15.3454 80.9478 15.6071 80.9478 15.9401C80.9478 16.5746 80.7952 17.0663 80.4902 17.4152C79.7999 18.2558 79.0534 18.9458 78.2507 19.485C77.4641 20.0243 76.5651 20.2939 75.5537 20.2939C74.7831 20.2939 74.2132 20.0005 73.844 19.4137C73.4908 18.8268 73.3142 18.002 73.3142 16.9394C73.0413 18.0179 72.6319 18.8506 72.0861 19.4375C71.5403 20.0084 70.9543 20.2939 70.3282 20.2939Z" fill="white"/>
<path d="M88.7237 12.3477C89.0769 12.3477 89.3739 12.4745 89.6147 12.7283C89.8716 12.9662 90 13.2676 90 13.6324C90 13.8386 89.9518 14.0606 89.8555 14.2985C89.5987 14.8854 89.2374 15.3771 88.7719 15.7736C88.3063 16.1701 87.7926 16.3684 87.2307 16.3684C86.7812 16.3684 86.3959 16.2098 86.0749 15.8926C85.7698 15.5753 85.6173 15.1471 85.6173 14.6078C85.6173 14.3065 85.6334 13.9813 85.6655 13.6324C85.6976 13.3786 85.7137 13.2041 85.7137 13.109C85.7137 12.9821 85.6815 12.8869 85.6173 12.8235C85.5692 12.76 85.505 12.7283 85.4247 12.7283C85.1999 12.7283 84.8949 12.998 84.5096 13.5372C84.1243 14.0606 83.739 14.7585 83.3537 15.6309C82.9685 16.5032 82.6554 17.4231 82.4146 18.3906C82.238 19.152 82.0373 19.6595 81.8126 19.9133C81.5878 20.1671 81.2186 20.2939 80.7049 20.2939C80.0948 20.2939 79.6614 19.9767 79.4045 19.3423C79.1637 18.7079 79.0433 17.6928 79.0433 16.297C79.0433 14.2351 79.3403 12.2763 79.9343 10.4206C80.0788 9.9606 80.3116 9.62753 80.6326 9.42134C80.9698 9.19928 81.4353 9.08826 82.0293 9.08826C82.3504 9.08826 82.5751 9.12791 82.7036 9.20721C82.832 9.28652 82.8962 9.4372 82.8962 9.65925C82.8962 9.91302 82.7758 10.484 82.535 11.3722C82.3745 12.0067 82.246 12.5618 82.1497 13.0376C82.0534 13.5134 81.9731 14.1003 81.9089 14.7982C82.4387 13.4341 83.0327 12.3239 83.6909 11.4674C84.3491 10.6109 84.9912 10.0003 85.6173 9.63546C86.2434 9.27066 86.8133 9.08826 87.3271 9.08826C87.7926 9.08826 88.1458 9.22308 88.3866 9.49271C88.6435 9.74648 88.7719 10.1271 88.7719 10.6347C88.7719 10.936 88.6836 11.507 88.507 12.3477H88.7237Z" fill="white"/>
</svg>
