<svg width="90" height="31" fill="none" xmlns="http://www.w3.org/2000/svg"><path d="M5.61 20.294c-.593 0-1.019-.127-1.275-.38-.257-.27-.386-.77-.386-1.5 0-.491.048-1.118.145-1.88a102.2 102.2 0 0 1 .53-3.187c.417-2.49.746-4.647.987-6.471.144-1.142.217-2.094.217-2.855 0-.714-.265-1.07-.795-1.07-.418 0-.923.213-1.517.641-.578.413-1.22 1.079-1.927 1.999-.224.301-.473.452-.746.452-.225 0-.426-.103-.602-.31A1.23 1.23 0 0 1 0 4.997c0-.254.048-.507.144-.761a4.63 4.63 0 0 1 .53-.904c.77-1.063 1.63-1.88 2.577-2.45C4.198.292 5.145 0 6.092 0c.883 0 1.558.278 2.023.833.482.555.723 1.364.723 2.426 0 .429-.04.936-.12 1.523A42.098 42.098 0 0 1 8.5 6.186c-.064.365-.112.618-.144.761.915-2.585 1.943-4.385 3.082-5.4C12.578.514 13.83 0 15.195 0c1.043 0 1.862.365 2.456 1.094.61.73.915 1.761.915 3.093 0 .524-.072 1.174-.217 1.951.803-2.189 1.742-3.759 2.818-4.71C22.242.475 23.479 0 24.875 0 26 0 26.858.357 27.452 1.07c.61.714.915 1.714.915 2.998 0 .698-.104 1.547-.313 2.546l-1.469 6.804c-.16.793-.24 1.475-.24 2.046 0 .667.152 1.166.457 1.5.32.332.762.499 1.324.499.53 0 1.044-.175 1.541-.524.514-.349 1.116-.927 1.806-1.736.193-.222.41-.333.65-.333a.53.53 0 0 1 .482.285c.129.19.193.452.193.785 0 .619-.153 1.11-.458 1.475-.835 1-1.661 1.729-2.48 2.189-.819.46-1.678.69-2.577.69-1.364 0-2.432-.397-3.202-1.19-.771-.808-1.156-1.887-1.156-3.235 0-.936.192-2.292.578-4.069l.963-4.353.168-.762c.08-.364.145-.705.193-1.023a6.83 6.83 0 0 0 .072-.975c0-.555-.112-.968-.337-1.237-.209-.286-.514-.429-.915-.429-.754 0-1.549.484-2.384 1.452-.819.951-1.605 2.537-2.36 4.758-.738 2.22-1.34 5.107-1.806 8.66-.112.952-.313 1.594-.602 1.927-.273.317-.722.476-1.348.476-.546 0-.947-.127-1.204-.38-.241-.255-.361-.73-.361-1.428 0-.65.088-1.499.264-2.546.177-1.063.402-2.308.675-3.735.738-3.838 1.107-6.313 1.107-7.423 0-.603-.12-1.047-.36-1.332-.226-.286-.57-.429-1.036-.429-.787 0-1.598.445-2.432 1.333-.835.872-1.654 2.434-2.457 4.687-.786 2.236-1.445 5.265-1.974 9.088-.113.809-.281 1.372-.506 1.69-.209.316-.626.475-1.252.475z" fill="#fff"/><path d="M43.187 14.917c.208 0 .369.103.481.31.129.19.193.436.193.737 0 .365-.056.65-.169.856a1.562 1.562 0 0 1-.53.548l-4.623 3.069c-.61 3.283-1.413 5.86-2.408 7.732C35.151 30.056 33.9 31 32.374 31c-.818 0-1.485-.254-1.998-.761-.514-.492-.77-1.142-.77-1.951 0-.746.168-1.507.505-2.284.353-.777.995-1.674 1.926-2.689.948-.999 2.28-2.149 3.998-3.45l.072-.546c.112-.587.24-1.428.385-2.522-.32 1.142-.77 2.014-1.348 2.617-.578.586-1.188.88-1.83.88-.723 0-1.317-.325-1.782-.976-.45-.666-.675-1.49-.675-2.474 0-1.19.08-2.276.241-3.26.16-.998.426-2.053.795-3.163.16-.476.385-.817.674-1.023.29-.207.747-.31 1.373-.31.353 0 .594.056.722.167.145.11.217.277.217.5 0 .126-.088.554-.265 1.284a24.61 24.61 0 0 0-.385 1.594c-.129.65-.241 1.277-.337 1.88a9.303 9.303 0 0 0-.145 1.45c0 .604.169.905.506.905.24 0 .538-.238.89-.714.37-.476.755-1.197 1.157-2.165.417-.967.818-2.157 1.204-3.568.128-.476.32-.817.578-1.023.273-.207.674-.31 1.204-.31.369 0 .626.048.77.143.145.095.217.254.217.476 0 .396-.209 1.76-.626 4.092l-.626 3.83c1.236-.92 2.44-1.76 3.612-2.522.209-.126.393-.19.554-.19zM32.639 28.692c.402 0 .851-.46 1.349-1.38.498-.92.995-2.45 1.493-4.591-1.236 1.03-2.135 1.966-2.697 2.807-.546.857-.819 1.602-.819 2.236 0 .27.048.492.145.666.112.175.289.262.53.262zM61.476.428c.498.095.867.262 1.108.5.257.238.385.515.385.833 0 .523-.152.904-.457 1.142-.29.237-.755.333-1.397.285a95.188 95.188 0 0 0-3.395-.214 70.542 70.542 0 0 0-3.179-.095 265.983 265.983 0 0 0-1.637 8.802 136.701 136.701 0 0 0-.554 3.76 57.924 57.924 0 0 0-.386 3.425c-.032.46-.224.817-.578 1.071-.353.238-.778.357-1.276.357-.53 0-.939-.127-1.228-.38-.289-.255-.433-.588-.433-1 0-.38.056-1.007.168-1.88.129-.888.273-1.815.434-2.783.176-.968.313-1.808.41-2.522.176-1.205.376-2.403.601-3.592.225-1.19.45-2.316.674-3.379l.169-.809c.064-.317.136-.666.217-1.046-1.574.047-2.81.174-3.709.38-.899.206-1.54.5-1.926.88-.37.365-.554.841-.554 1.428 0 .54.16 1.055.481 1.546a.7.7 0 0 1 .097.357c0 .302-.185.587-.554.857-.353.253-.722.38-1.108.38a.971.971 0 0 1-.674-.238c-.321-.27-.586-.65-.795-1.142a4.475 4.475 0 0 1-.313-1.712c0-1.349.442-2.427 1.325-3.236.899-.825 2.255-1.428 4.07-1.808 1.83-.38 4.173-.571 7.03-.571 1.767 0 3.172.032 4.215.095 1.06.063 1.983.166 2.77.31zm7.813 12.443c.208 0 .369.103.481.31.113.206.169.467.169.785 0 .76-.233 1.213-.699 1.356-.963.333-2.022.523-3.178.57-.305 1.333-.907 2.404-1.806 3.212-.9.793-1.919 1.19-3.059 1.19-.963 0-1.79-.23-2.48-.69a4.428 4.428 0 0 1-1.541-1.832 5.808 5.808 0 0 1-.53-2.474c0-1.206.233-2.276.699-3.212.465-.952 1.107-1.69 1.926-2.213a4.842 4.842 0 0 1 2.721-.809c1.22 0 2.2.42 2.938 1.261.754.825 1.196 1.848 1.324 3.07.755-.048 1.654-.207 2.697-.476.129-.032.241-.048.338-.048zm-7.899 4.901c.514 0 .955-.206 1.325-.618.385-.413.642-1.008.77-1.785a3.388 3.388 0 0 1-1.156-1.308 3.933 3.933 0 0 1-.385-1.713c0-.254.024-.508.072-.762h-.12c-.642 0-1.18.31-1.614.928-.417.603-.626 1.46-.626 2.57 0 .872.169 1.538.506 1.998.353.46.763.69 1.228.69z" fill="#fff"/><path d="M70.328 20.294c-.722 0-1.316-.325-1.782-.976-.45-.666-.674-1.49-.674-2.474 0-1.19.08-2.276.24-3.26.161-.998.426-2.053.795-3.163.161-.476.386-.817.675-1.023.289-.207.746-.31 1.372-.31.354 0 .594.056.723.167.144.11.216.277.216.5 0 .126-.088.554-.264 1.284a24.13 24.13 0 0 0-.386 1.594c-.32 1.666-.481 2.776-.481 3.33 0 .334.04.572.12.715.08.127.209.19.385.19.241 0 .538-.238.891-.714.37-.476.755-1.197 1.156-2.165.418-.967.819-2.157 1.204-3.568.129-.476.321-.817.578-1.023.273-.207.674-.31 1.204-.31.37 0 .626.048.77.143.145.08.218.238.218.476 0 .396-.201 1.483-.602 3.26-.45 2.03-.675 3.282-.675 3.758 0 .302.065.54.193.714a.62.62 0 0 0 .506.238c.32 0 .698-.19 1.131-.571.45-.397 1.044-1.031 1.782-1.903.193-.222.41-.333.65-.333a.53.53 0 0 1 .482.285c.129.19.193.452.193.785 0 .635-.153 1.126-.458 1.475-.69.84-1.437 1.53-2.24 2.07-.786.54-1.685.809-2.696.809-.77 0-1.34-.294-1.71-.88-.353-.587-.53-1.412-.53-2.475-.273 1.079-.682 1.912-1.228 2.498-.546.571-1.132.857-1.758.857z" fill="#fff"/><path d="M88.724 12.348c.353 0 .65.127.89.38.258.238.386.54.386.904 0 .207-.048.429-.144.667a4.027 4.027 0 0 1-1.084 1.475c-.466.396-.98.594-1.541.594-.45 0-.835-.158-1.156-.475-.305-.318-.458-.746-.458-1.285 0-.302.016-.627.048-.976.033-.253.049-.428.049-.523 0-.127-.032-.222-.097-.286a.23.23 0 0 0-.192-.095c-.225 0-.53.27-.915.81-.386.523-.771 1.22-1.156 2.093a16.953 16.953 0 0 0-.94 2.76c-.176.761-.377 1.269-.601 1.522-.225.254-.594.38-1.108.38-.61 0-1.044-.316-1.3-.95-.241-.635-.362-1.65-.362-3.046 0-2.062.297-4.02.891-5.876.145-.46.378-.793.699-1 .337-.222.802-.333 1.396-.333.321 0 .546.04.675.12.128.079.192.23.192.451 0 .254-.12.825-.361 1.713a36.18 36.18 0 0 0-.385 1.666 16.875 16.875 0 0 0-.241 1.76c.53-1.364 1.124-2.474 1.782-3.33.658-.857 1.3-1.468 1.926-1.833.626-.364 1.196-.547 1.71-.547.466 0 .819.135 1.06.405.257.253.385.634.385 1.142 0 .301-.088.872-.265 1.713h.217z" fill="#fff"/></svg>