<svg width="15" height="15" fill="none" xmlns="http://www.w3.org/2000/svg"><path d="M7.508 5.998A1.5 1.5 0 0 0 9.01 4.484 1.505 1.505 0 0 0 7.5 2.976c-.844 0-1.519.68-1.512 1.526.006.836.68 1.5 1.52 1.496z" fill="#BABDBE"/><path d="M14.202 0H.798A.798.798 0 0 0 0 .798v13.404c0 .44.357.798.798.798h13.404c.44 0 .798-.357.798-.798V.798A.798.798 0 0 0 14.202 0zm-6.69 1.399c1.708.004 3.079 1.401 3.07 3.128-.009 1.687-1.402 3.054-3.106 3.048A3.09 3.09 0 0 1 4.414 4.48a3.093 3.093 0 0 1 3.099-3.081zm3.46 7.39a3.712 3.712 0 0 1-1.338.863c-.477.185-1 .278-1.518.34.079.085.115.127.164.176.703.706 1.408 1.41 2.109 2.118.238.24.289.54.157.82-.144.308-.465.51-.781.488-.2-.014-.356-.114-.494-.253-.53-.534-1.07-1.057-1.59-1.6-.151-.159-.224-.13-.357.008-.534.55-1.076 1.09-1.621 1.628-.245.242-.536.285-.82.147a.83.83 0 0 1-.48-.764c.01-.21.114-.37.258-.513.695-.694 1.388-1.39 2.082-2.086.046-.046.089-.095.156-.167-.946-.099-1.8-.331-2.53-.903-.09-.07-.184-.14-.267-.219-.32-.307-.351-.658-.098-1.02.216-.31.58-.393.957-.216.073.035.143.078.21.124 1.36.935 3.23.961 4.596.043a1.24 1.24 0 0 1 .448-.232.703.703 0 0 1 .805.321c.2.325.198.643-.049.896z" fill="#BABDBE"/></svg>