<svg width="15" height="15" fill="none" xmlns="http://www.w3.org/2000/svg"><path d="M14.202 0H.798A.798.798 0 0 0 0 .798v13.404c0 .44.357.798.798.798h13.404c.44 0 .798-.357.798-.798V.798A.798.798 0 0 0 14.202 0zm-2.255 8.448c.409.4.841.775 1.209 1.216.162.195.315.396.432.622.166.323.016.678-.274.697h-1.796c-.463.037-.833-.15-1.144-.466-.248-.253-.48-.523-.718-.785a1.693 1.693 0 0 0-.323-.288c-.245-.159-.458-.11-.599.145-.143.26-.176.549-.189.839-.02.423-.147.534-.572.554-.908.043-1.77-.095-2.57-.553-.707-.404-1.254-.974-1.73-1.619-.928-1.258-1.639-2.639-2.277-4.059-.144-.32-.039-.491.314-.498.586-.011 1.173-.01 1.759 0 .238.003.396.14.487.365.317.78.706 1.521 1.193 2.209.13.183.262.366.45.495.208.143.367.096.465-.136.063-.148.09-.306.103-.464a6.943 6.943 0 0 0-.028-1.624c-.05-.337-.24-.555-.577-.62-.172-.032-.147-.095-.063-.193.144-.17.28-.274.551-.274h2.03c.32.062.391.206.435.528l.002 2.255c-.003.125.062.494.286.576.18.06.298-.084.406-.198.486-.517.833-1.126 1.143-1.757.137-.278.256-.566.37-.855.086-.213.219-.318.46-.314l1.954.002c.057 0 .116 0 .173.01.329.056.419.198.317.52-.16.504-.472.925-.777 1.346-.326.451-.674.887-.998 1.34-.296.416-.272.625.096.984z" fill="#BABDBE"/></svg>