<svg width="15" height="15" fill="none" xmlns="http://www.w3.org/2000/svg"><path d="M11.02 5.473h1.496a.597.597 0 0 0 .595-.595V3.453a.597.597 0 0 0-.595-.595H11.02a.597.597 0 0 0-.595.595v1.425c0 .327.267.595.595.595zm-3.007 5.071c1.466 0 2.655-1.152 2.655-2.573 0-1.42-1.189-2.573-2.655-2.573-1.467 0-2.656 1.152-2.656 2.573s1.189 2.573 2.656 2.573z" fill="#BABDBE"/><path d="M14.202 0H.798A.798.798 0 0 0 0 .798v13.404c0 .44.357.798.798.798h13.404c.44 0 .798-.357.798-.798V.798A.798.798 0 0 0 14.202 0zm-.504 12.107c0 .944-.716 1.591-1.59 1.591H2.892c-.875 0-1.591-.648-1.591-1.59V2.892c0-.943.716-1.591 1.59-1.591h9.215c.875 0 1.591.648 1.591 1.59v9.215z" fill="#BABDBE"/><path d="M12.123 8.115c0 2.2-1.84 3.982-4.11 3.982-2.27 0-4.11-1.783-4.11-3.982 0-.394.06-.775.17-1.135H2.857v5.586c0 .289.236.526.526.526h9.208a.527.527 0 0 0 .525-.526V6.98h-1.163c.11.36.169.74.169 1.135z" fill="#BABDBE"/></svg>